<?xml version="1.0" encoding="UTF-8"?>
<svg width="14px" height="17px" viewBox="0 0 14 17" version="1.1" xmlns="http://www.w3.org/2000/svg" xmlns:xlink="http://www.w3.org/1999/xlink">
    <!-- Generator: Sketch 47.1 (45422) - http://www.bohemiancoding.com/sketch -->
    <title>acessibility</title>
    <desc>Created with Sketch.</desc>
    <defs></defs>
    <g id="Visual-Designs" stroke="none" stroke-width="1" fill="none" fill-rule="evenodd">
        <g id="My-pools-new-Copy-19" transform="translate(-288.000000, -216.000000)" fill="#4BAEE0">
            <g id="toggle" transform="translate(279.000000, 210.000000)">
                <g id="Accessibility-button">
                    <g id="acessibility" transform="translate(9.692688, 5.880249)">
                        <path d="M10.6229332,10.8688541 L5.67378225,11.9208286 C5.308367,11.9985001 4.9491743,11.7652376 4.87150289,11.3998223 C4.79383148,11.0344071 5.02709395,10.6752144 5.3925092,10.597543 L10.8570191,9.43602554 L10.8570191,9.43602554 C10.889421,9.4291383 10.921774,9.42469582 10.9538862,9.42257345 C11.313888,9.3535264 11.6735019,9.56438363 11.7852903,9.91934278 L13.1622452,14.291555 C13.2730718,14.6434598 13.0776391,15.0185778 12.7257343,15.1294043 C12.7165371,15.1323008 12.7072783,15.1349978 12.6979644,15.1374935 L12.6979644,15.1374935 C12.3211896,15.23845 11.931751,15.0247124 11.8145796,14.6526609 L10.6229332,10.8688541 Z" id="Combined-Shape"></path>
                        <rect id="Rectangle-2-Copy-4" transform="translate(7.415209, 7.514986) rotate(-282.000000) translate(-7.415209, -7.514986) " x="6.83330245" y="5.51498585" width="1.16381365" height="4" rx="0.581906825"></rect>
                        <rect id="Rectangle-2-Copy" transform="translate(5.083831, 7.989957) rotate(-12.000000) translate(-5.083831, -7.989957) " x="4.16586865" y="4.02260771" width="1.83592407" height="7.93469852" rx="0.917962036"></rect>
                        <circle id="Oval" cx="4.20075639" cy="2.4289732" r="1.48947557"></circle>
                        <path d="M2.17236363,7.87578181 C0.860396655,8.77701391 0,10.2880288 0,12 C0,14.7614237 2.23857625,17 5,17 C7.41895791,17 9.43671155,15.2822403 9.89998188,13 L8.50197962,13 C8.06743455,14.5246605 6.66408734,15.6410217 5,15.6410217 C2.98911923,15.6410217 1.35897827,14.0108808 1.35897827,12 C1.35897827,10.7740263 1.96489758,9.68957272 2.8936059,9.02976944 L2.17236363,7.87578181 Z" id="Combined-Shape"></path>
                        <ellipse id="Oval-3" cx="9.19499999" cy="12.9900014" rx="1" ry="1"></ellipse>
                        <circle id="Oval-3" cx="2.53683603" cy="8.45011902" r="1"></circle>
                    </g>
                </g>
            </g>
        </g>
    </g>
</svg>