<?xml version="1.0" encoding="UTF-8"?>
<svg width="30px" height="30px" viewBox="0 0 30 30" version="1.1" xmlns="http://www.w3.org/2000/svg" xmlns:xlink="http://www.w3.org/1999/xlink">
    <!-- Generator: Sketch 47.1 (45422) - http://www.bohemiancoding.com/sketch -->
    <title>Group 3</title>
    <desc>Created with Sketch.</desc>
    <defs></defs>
    <g id="Visual-Designs" stroke="none" stroke-width="1" fill="none" fill-rule="evenodd">
        <g id="My-pools-new" transform="translate(-325.000000, -44.000000)">
            <g id="Group-3" transform="translate(325.000000, 44.000000)">
                <circle id="Oval-5" fill="#4BAEE0" cx="15" cy="15" r="15"></circle>
                <path d="M17,12.5 L17,8.5 C17,7.67157288 16.3284271,7 15.5,7 C14.6715729,7 14,7.67157288 14,8.5 L14,12.5 L14,12.5 C14,13.0522847 13.5522847,13.5 13,13.5 L9,13.5 C8.17157288,13.5 7.5,14.1715729 7.5,15 C7.5,15.8284271 8.17157288,16.5 9,16.5 L13,16.5 L13,16.5 C13.5522847,16.5 14,16.9477153 14,17.5 L14,21.5 C14,22.3284271 14.6715729,23 15.5,23 C16.3284271,23 17,22.3284271 17,21.5 L17,17.5 L17,17.5 C17,16.9477153 17.4477153,16.5 18,16.5 L22,16.5 C22.8284271,16.5 23.5,15.8284271 23.5,15 C23.5,14.1715729 22.8284271,13.5 22,13.5 L18,13.5 L18,13.5 C17.4477153,13.5 17,13.0522847 17,12.5 Z" id="Combined-Shape" fill="#FFFFFF"></path>
            </g>
        </g>
    </g>
</svg>