<?xml version="1.0" encoding="UTF-8"?>
<svg width="24px" height="15px" viewBox="0 0 24 15" version="1.1" xmlns="http://www.w3.org/2000/svg" xmlns:xlink="http://www.w3.org/1999/xlink">
    <!-- Generator: Sketch 47.1 (45422) - http://www.bohemiancoding.com/sketch -->
    <title>back white</title>
    <desc>Created with Sketch.</desc>
    <defs></defs>
    <g id="Visual-Designs" stroke="none" stroke-width="1" fill="none" fill-rule="evenodd">
        <g id="My-pools-new-Copy-2" transform="translate(-31.000000, -52.000000)" fill="#FFFFFF">
            <g id="back-white" transform="translate(30.000000, 52.000000)">
                <g id="back-blue">
                    <path d="M5.9076336,9 L23.5,9 C24.3284271,9 25,8.32842712 25,7.5 C25,6.67157288 24.3284271,6 23.5,6 L5.9076336,6 L9.53928868,2.73004307 C10.15493,2.17571713 10.204636,1.22727126 9.65031001,0.611629924 C9.09598407,-0.00401140689 8.1475382,-0.0537173488 7.53189687,0.500608595 L2.11102133,5.38158685 C1.84170575,5.62407968 1,6.5 0.99630409,7.5 C0.992608181,8.5 1.84170575,9.37592032 2.11102133,9.61841315 L7.53189687,14.4993914 C8.1475382,15.0537173 9.09598407,15.0040114 9.65031001,14.3883701 C10.204636,13.7727287 10.15493,12.8242829 9.53928868,12.2699569 L5.9076336,9 Z" id="Combined-Shape"></path>
                </g>
            </g>
        </g>
    </g>
</svg>