<?xml version="1.0" encoding="UTF-8"?>
<svg width="30px" height="30px" viewBox="0 0 30 30" version="1.1" xmlns="http://www.w3.org/2000/svg" xmlns:xlink="http://www.w3.org/1999/xlink">
    <!-- Generator: Sketch 47.1 (45422) - http://www.bohemiancoding.com/sketch -->
    <title>add</title>
    <desc>Created with Sketch.</desc>
    <defs></defs>
    <g id="Visual-Designs" stroke="none" stroke-width="1" fill="none" fill-rule="evenodd">
        <g id="pool-you" transform="translate(-170.000000, -538.000000)">
            <g id="below-tab" transform="translate(30.000000, 415.000000)">
                <g id="2-Tickets" transform="translate(0.000000, 119.000000)">
                    <g id="add" transform="translate(140.000000, 4.000000)">
                        <g>
                            <circle id="Oval-5" fill="#4BAEE0" cx="15" cy="15" r="15"></circle>
                            <path d="M16.5,12.5 L16.5,8.5 C16.5,7.67157288 15.8284271,7 15,7 C14.1715729,7 13.5,7.67157288 13.5,8.5 L13.5,12.5 L13.5,12.5 C13.5,13.0522847 13.0522847,13.5 12.5,13.5 L8.5,13.5 C7.67157288,13.5 7,14.1715729 7,15 C7,15.8284271 7.67157288,16.5 8.5,16.5 L12.5,16.5 L12.5,16.5 C13.0522847,16.5 13.5,16.9477153 13.5,17.5 L13.5,21.5 C13.5,22.3284271 14.1715729,23 15,23 C15.8284271,23 16.5,22.3284271 16.5,21.5 L16.5,17.5 L16.5,17.5 C16.5,16.9477153 16.9477153,16.5 17.5,16.5 L21.5,16.5 C22.3284271,16.5 23,15.8284271 23,15 C23,14.1715729 22.3284271,13.5 21.5,13.5 L17.5,13.5 L17.5,13.5 C16.9477153,13.5 16.5,13.0522847 16.5,12.5 Z" id="Combined-Shape" fill="#FFFFFF"></path>
                        </g>
                    </g>
                </g>
            </g>
        </g>
    </g>
</svg>