<?xml version="1.0" encoding="UTF-8"?>
<svg width="30px" height="30px" viewBox="0 0 30 30" version="1.1" xmlns="http://www.w3.org/2000/svg" xmlns:xlink="http://www.w3.org/1999/xlink">
    <!-- Generator: Sketch 47.1 (45422) - http://www.bohemiancoding.com/sketch -->
    <title>search-circle</title>
    <desc>Created with Sketch.</desc>
    <defs></defs>
    <g id="Visual-Designs" stroke="none" stroke-width="1" fill="none" fill-rule="evenodd">
        <g id="Explore-New-Copy" transform="translate(-325.000000, -44.000000)">
            <g id="search-circle" transform="translate(325.000000, 44.000000)">
                <circle id="Oval-5" fill="#4BAEE0" cx="15" cy="15" r="15"></circle>
                <g id="Search-white" transform="translate(6.000000, 6.000000)" fill="#FFFFFF">
                    <g id="Search-black">
                        <path d="M13.7087003,11.7087003 L16,14 C16.5522847,14.5522847 16.5522847,15.4477153 16,16 C15.4477153,16.5522847 14.5522847,16.5522847 14,16 L11.7087003,13.7087003 C10.5086822,14.5237436 9.05995891,15 7.5,15 C3.35786438,15 0,11.6421356 0,7.5 C0,3.35786438 3.35786438,0 7.5,0 C11.6421356,0 15,3.35786438 15,7.5 C15,9.05995891 14.5237436,10.5086822 13.7087003,11.7087003 Z M7.5,12 C9.98528137,12 12,9.98528137 12,7.5 C12,5.01471863 9.98528137,3 7.5,3 C5.01471863,3 3,5.01471863 3,7.5 C3,9.98528137 5.01471863,12 7.5,12 Z" id="Search"></path>
                    </g>
                </g>
            </g>
        </g>
    </g>
</svg>