<?xml version="1.0" encoding="UTF-8"?>
<svg width="48px" height="40px" viewBox="0 0 48 40" version="1.1" xmlns="http://www.w3.org/2000/svg" xmlns:xlink="http://www.w3.org/1999/xlink">
    <!-- Generator: Sketch 47.1 (45422) - http://www.bohemiancoding.com/sketch -->
    <title>Group</title>
    <desc>Created with Sketch.</desc>
    <defs></defs>
    <g id="Visual-Designs" stroke="none" stroke-width="1" fill="none" fill-rule="evenodd">
        <g id="My-pools-new-Copy-5" transform="translate(-34.000000, -172.000000)">
            <g id="Content" transform="translate(30.000000, 160.000000)">
                <g id="Group" transform="translate(3.000000, 11.000000)">
                    <g id="Ticket-color" opacity="0.648890399" transform="translate(21.324074, 20.500000) rotate(-43.000000) translate(-21.324074, -20.500000) translate(2.722222, 10.022222)" fill="#4BAEE0">
                        <path d="M34.7575758,21 L2.24242424,21 C1.00396753,21 0,20.0103137 0,18.7894737 L0,17.6842105 C0,16.0263158 1.12121212,16.0263158 2.24242424,15.4736842 C3.36363636,14.9210526 4.48484848,13.4943115 4.48484848,11.0526316 C4.48484848,8.61095163 3.36363636,7.18421053 2.24242424,6.63157895 C1.12121212,6.07894737 0,6.07894737 0,4.42105263 L0,2.21052632 C0,0.989686342 1.00396753,0 2.24242424,0 L34.7575758,0 C35.9960325,0 37,0.989686342 37,2.21052632 L37,4.42105263 C37,6.07894737 35.8787879,6.07894737 34.7575758,6.63157895 C33.6363636,7.18421053 32.5151515,8.61095163 32.5151515,11.0526316 C32.5151515,13.4943115 33.6363636,14.9210526 34.7575758,15.4736842 C35.8787879,16.0263158 37,16.0263158 37,17.6842105 L37,18.7894737 C37,20.0103137 35.9960325,21 34.7575758,21 Z M12.0434783,3.23076923 C9.83433926,3.23076923 8.04347826,5.02163023 8.04347826,7.23076923 L8.04347826,7.23076923 L8.04347826,13.7692308 C8.04347826,15.9783698 9.83433926,17.7692308 12.0434783,17.7692308 L12.0434783,17.7692308 L24.9565217,17.7692308 C27.1656607,17.7692308 28.9565217,15.9783698 28.9565217,13.7692308 L28.9565217,13.7692308 L28.9565217,7.23076923 C28.9565217,5.02163023 27.1656607,3.23076923 24.9565217,3.23076923 L12.0434783,3.23076923 Z" id="Ticket-icon"></path>
                    </g>
                    <rect id="Rectangle" fill="#FFFFFF" x="19" y="22" width="23" height="15"></rect>
                    <g id="Ticket-color" transform="translate(11.796296, 19.133333)" fill="#4BAEE0">
                        <path d="M34.7575758,21 L2.24242424,21 C1.00396753,21 0,20.0103137 0,18.7894737 L0,17.6842105 C0,16.0263158 1.12121212,16.0263158 2.24242424,15.4736842 C3.36363636,14.9210526 4.48484848,13.4943115 4.48484848,11.0526316 C4.48484848,8.61095163 3.36363636,7.18421053 2.24242424,6.63157895 C1.12121212,6.07894737 0,6.07894737 0,4.42105263 L0,2.21052632 C0,0.989686342 1.00396753,0 2.24242424,0 L34.7575758,0 C35.9960325,0 37,0.989686342 37,2.21052632 L37,4.42105263 C37,6.07894737 35.8787879,6.07894737 34.7575758,6.63157895 C33.6363636,7.18421053 32.5151515,8.61095163 32.5151515,11.0526316 C32.5151515,13.4943115 33.6363636,14.9210526 34.7575758,15.4736842 C35.8787879,16.0263158 37,16.0263158 37,17.6842105 L37,18.7894737 C37,20.0103137 35.9960325,21 34.7575758,21 Z M12.0434783,3.23076923 C9.83433926,3.23076923 8.04347826,5.02163023 8.04347826,7.23076923 L8.04347826,7.23076923 L8.04347826,13.7692308 C8.04347826,15.9783698 9.83433926,17.7692308 12.0434783,17.7692308 L12.0434783,17.7692308 L24.9565217,17.7692308 C27.1656607,17.7692308 28.9565217,15.9783698 28.9565217,13.7692308 L28.9565217,13.7692308 L28.9565217,7.23076923 C28.9565217,5.02163023 27.1656607,3.23076923 24.9565217,3.23076923 L12.0434783,3.23076923 Z" id="Ticket-icon"></path>
                    </g>
                </g>
            </g>
        </g>
    </g>
</svg>