<?xml version="1.0" encoding="UTF-8"?>
<svg width="26px" height="19px" viewBox="0 0 26 19" version="1.1" xmlns="http://www.w3.org/2000/svg" xmlns:xlink="http://www.w3.org/1999/xlink">
    <!-- Generator: Sketch 47.1 (45422) - http://www.bohemiancoding.com/sketch -->
    <title>Green tick</title>
    <desc>Created with Sketch.</desc>
    <defs></defs>
    <g id="Visual-Designs" stroke="none" stroke-width="1" fill="none" fill-rule="evenodd">
        <g id="iPhone-8-Copy-10" transform="translate(-174.000000, -439.000000)" fill="#00E17A">
            <g id="Green-tick" transform="translate(174.000000, 439.000000)">
                <g id="Combined-Shape">
                    <path d="M10.8490412,12.5607412 L21.9714502,1.60310874 L21.9714502,1.60310874 C22.8740384,0.713892178 24.3232932,0.713892178 25.2258815,1.60310874 L25.2258815,1.60310874 L25.2258815,1.60310874 C26.1112021,2.47531356 26.1218346,3.90006948 25.2496298,4.78539016 C25.2417421,4.79339653 25.2337944,4.80134369 25.2257876,4.80923098 L11.549914,18.2809216 L11.549914,18.2809216 C11.1606258,18.6643976 10.5356008,18.6643793 10.1463351,18.2808805 L1.62721564,9.88797025 L1.62721564,9.88797025 C0.741843131,9.01571437 0.731210002,7.59087503 1.60346588,6.70550252 C1.61132328,6.69752697 1.61924009,6.68961016 1.62721564,6.68175276 L1.62721564,6.68175276 L1.62721564,6.68175276 C2.52980389,5.7925362 3.97905869,5.7925362 4.88164693,6.68175276 L10.8490412,12.5607412 Z"></path>
                </g>
            </g>
        </g>
    </g>
</svg>