<?xml version="1.0" encoding="UTF-8"?>
<svg width="14px" height="10px" viewBox="0 0 14 10" version="1.1" xmlns="http://www.w3.org/2000/svg" xmlns:xlink="http://www.w3.org/1999/xlink">
    <!-- Generator: Sketch 47.1 (45422) - http://www.bohemiancoding.com/sketch -->
    <title>Green tick</title>
    <desc>Created with Sketch.</desc>
    <defs></defs>
    <g id="Visual-Designs" stroke="none" stroke-width="1" fill="none" fill-rule="evenodd">
        <g id="pool-you-copy" transform="translate(-237.000000, -432.000000)" fill="#00E17A">
            <g id="below-tab" transform="translate(30.000000, 187.000000)">
                <g id="Green-tick">
                    <g transform="translate(207.000000, 245.000000)">
                        <g id="Combined-Shape">
                            <path d="M5.62542879,6.61091644 L11.3926038,0.843741445 L11.3926038,0.843741445 C11.8585893,0.377755912 12.6141011,0.377755912 13.0800867,0.843741445 L13.0800867,0.843741445 L13.0800867,0.843741445 C13.5460449,1.3096997 13.5460449,2.06516729 13.0800867,2.53112554 C13.0800702,2.53114201 13.0800538,2.53115847 13.0800373,2.53117494 L6.33209114,9.27833101 L6.33204975,9.27828961 C5.94151876,9.66877487 5.30838571,9.66875633 4.91787758,9.27824821 L0.843741445,5.20419487 L0.843741445,5.20419487 C0.377755912,4.73820934 0.377755912,3.98269751 0.843741445,3.51671198 L0.843741445,3.51671198 L0.843741445,3.51671198 C1.30972698,3.05072645 2.0652388,3.05072645 2.53122433,3.51671198 L5.62542879,6.61091644 Z"></path>
                        </g>
                    </g>
                </g>
            </g>
        </g>
    </g>
</svg>