<?xml version="1.0" encoding="UTF-8"?>
<svg width="375px" height="65px" viewBox="0 0 375 65" version="1.1" xmlns="http://www.w3.org/2000/svg" xmlns:xlink="http://www.w3.org/1999/xlink">
    <!-- Generator: Sketch 47.1 (45422) - http://www.bohemiancoding.com/sketch -->
    <title>Search bar</title>
    <desc>Created with Sketch.</desc>
    <defs></defs>
    <g id="Visual-Designs" stroke="none" stroke-width="1" fill="none" fill-rule="evenodd">
        <g id="iPhone-8-Copy-5" transform="translate(0.000000, -431.000000)">
            <g id="Search-bar" transform="translate(0.000000, 431.000000)">
                <g>
                    <rect id="Rectangle" fill="#FFFFFF" x="0" y="0" width="375" height="65"></rect>
                    <g id="Search-black" transform="translate(30.000000, 24.000000)" fill="#313131">
                        <path d="M13.7087003,11.7087003 L16,14 C16.5522847,14.5522847 16.5522847,15.4477153 16,16 C15.4477153,16.5522847 14.5522847,16.5522847 14,16 L11.7087003,13.7087003 C10.5086822,14.5237436 9.05995891,15 7.5,15 C3.35786438,15 0,11.6421356 0,7.5 C0,3.35786438 3.35786438,0 7.5,0 C11.6421356,0 15,3.35786438 15,7.5 C15,9.05995891 14.5237436,10.5086822 13.7087003,11.7087003 Z M7.5,12 C9.98528137,12 12,9.98528137 12,7.5 C12,5.01471863 9.98528137,3 7.5,3 C5.01471863,3 3,5.01471863 3,7.5 C3,9.98528137 5.01471863,12 7.5,12 Z" id="Search"></path>
                    </g>
                    <text id="Search" opacity="0.4" font-family="SFUIText-Bold, SF UI Text" font-size="18" font-weight="bold" fill="#2B2B2B">
                        <tspan x="64" y="39">Search</tspan>
                    </text>
                </g>
            </g>
        </g>
    </g>
</svg>