<?xml version="1.0" encoding="UTF-8"?>
<svg width="18px" height="20px" viewBox="0 0 18 20" version="1.1" xmlns="http://www.w3.org/2000/svg" xmlns:xlink="http://www.w3.org/1999/xlink">
    <!-- Generator: Sketch 47.1 (45422) - http://www.bohemiancoding.com/sketch -->
    <title>Nav accounts</title>
    <desc>Created with Sketch.</desc>
    <defs></defs>
    <g id="Symbols" stroke="none" stroke-width="1" fill="none" fill-rule="evenodd">
        <g id="Dark-nav-avvount" transform="translate(-320.000000, -9.000000)" fill="#4BAEE0">
            <g id="Account" transform="translate(297.000000, 9.000000)">
                <path d="M26,6 C26,2.6862915 28.6862915,0 32,0 C35.3137085,0 38,2.6862915 38,6 C38,6.05697114 37.999206,6.11375682 37.9976284,6.17034658 C38.3803727,6.2587314 38.6665197,6.38068431 38.9536914,6.53426541 C39.6055433,6.88287959 40.1171204,7.39445674 40.4657346,8.04630859 C40.8143488,8.69816044 41,9.34473292 41,11.1277704 L41,14.8722296 C41,16.6552671 40.8143488,17.3018396 40.4657346,17.9536914 C40.1171204,18.6055433 39.6055433,19.1171204 38.9536914,19.4657346 C38.3018396,19.8143488 37.6552671,20 35.8722296,20 L28.1277704,20 C26.3447329,20 25.6981604,19.8143488 25.0463086,19.4657346 C24.3944567,19.1171204 23.8828796,18.6055433 23.5342654,17.9536914 C23.1856512,17.3018396 23,16.6552671 23,14.8722296 L23,11.1277704 C23,9.34473292 23.1856512,8.69816044 23.5342654,8.04630859 C23.8828796,7.39445674 24.3944567,6.88287959 25.0463086,6.53426541 C25.3334803,6.38068431 25.6196273,6.2587314 26.0023716,6.17034658 C26.000794,6.11375682 26,6.05697114 26,6 Z M32,2 C29.790861,2 28,3.79071442 28,5.9996726 C28.0419322,5.99978184 28.0845169,5.9996726 28.1277704,5.9996726 L35.8722296,5.9996726 C35.9154831,5.9996726 35.9580678,5.99978184 36,6 C36,3.79071442 34.209139,2 32,2 Z M30,9 C27.790861,9 26,10.790861 26,13 C26,15.209139 27.790861,17 30,17 L34,17 C36.209139,17 38,15.209139 38,13 C38,10.790861 36.209139,9 34,9 L30,9 Z" id="Nav-accounts"></path>
            </g>
        </g>
    </g>
</svg>