<?xml version="1.0" encoding="UTF-8"?>
<svg width="18px" height="19px" viewBox="0 0 18 19" version="1.1" xmlns="http://www.w3.org/2000/svg" xmlns:xlink="http://www.w3.org/1999/xlink">
    <!-- Generator: Sketch 47.1 (45422) - http://www.bohemiancoding.com/sketch -->
    <title>nav pool</title>
    <desc>Created with Sketch.</desc>
    <defs></defs>
    <g id="Symbols" stroke="none" stroke-width="1" fill="none" fill-rule="evenodd">
        <g id="Darn-nav-explore" transform="translate(-132.000000, -10.000000)" fill="#999999">
            <g id="Pools" transform="translate(119.000000, 10.000000)">
                <path d="M29.3558314,14.1503288 C30.3150549,14.4997973 31,15.4199099 31,16.5 C31,17.8807119 29.8807119,19 28.5,19 C27.5671815,19 26.7536886,18.4891069 26.3240668,17.7318665 C25.0772317,18.5344017 23.592989,19 22,19 C20.407011,19 18.9227683,18.5344017 17.6759332,17.7318665 C17.2463114,18.4891069 16.4328185,19 15.5,19 C14.1192881,19 13,17.8807119 13,16.5 C13,15.4199099 13.6849451,14.4997973 14.6441686,14.1503288 C14.2295715,13.1835358 14,12.1185775 14,11 C14,7.62270002 16.0927872,4.73419669 19.0522828,3.56056887 C19.0179581,3.37896791 19,3.19158112 19,3 C19,1.34314575 20.3431458,0 22,0 C23.6568542,0 25,1.34314575 25,3 C25,3.19158112 24.9820419,3.37896791 24.9477172,3.56056887 C27.9072128,4.73419669 30,7.62270002 30,11 C30,12.1185775 29.7704285,13.1835358 29.3558314,14.1503288 Z M22,16 C24.7614237,16 27,13.7614237 27,11 C27,8.23857625 24.7614237,6 22,6 C19.2385763,6 17,8.23857625 17,11 C17,13.7614237 19.2385763,16 22,16 Z" id="nav-pool"></path>
            </g>
        </g>
    </g>
</svg>