<?xml version="1.0" encoding="UTF-8"?>
<svg width="17px" height="17px" viewBox="0 0 17 17" version="1.1" xmlns="http://www.w3.org/2000/svg" xmlns:xlink="http://www.w3.org/1999/xlink">
    <!-- Generator: Sketch 47.1 (45422) - http://www.bohemiancoding.com/sketch -->
    <title>nav search</title>
    <desc>Created with Sketch.</desc>
    <defs></defs>
    <g id="Symbols" stroke="none" stroke-width="1" fill="none" fill-rule="evenodd">
        <g id="Darn-nav-explore" transform="translate(-38.000000, -11.000000)" fill="#4BAEE0">
            <g id="Explore" transform="translate(18.000000, 11.000000)">
                <path d="M33.7087003,11.7087003 L36,14 C36.5522847,14.5522847 36.5522847,15.4477153 36,16 C35.4477153,16.5522847 34.5522847,16.5522847 34,16 L31.7087003,13.7087003 C30.5086822,14.5237436 29.0599589,15 27.5,15 C23.3578644,15 20,11.6421356 20,7.5 C20,3.35786438 23.3578644,0 27.5,0 C31.6421356,0 35,3.35786438 35,7.5 C35,9.05995891 34.5237436,10.5086822 33.7087003,11.7087003 Z M27.5,12 C29.9852814,12 32,9.98528137 32,7.5 C32,5.01471863 29.9852814,3 27.5,3 C25.0147186,3 23,5.01471863 23,7.5 C23,9.98528137 25.0147186,12 27.5,12 Z" id="nav-search"></path>
            </g>
        </g>
    </g>
</svg>