<?xml version="1.0" encoding="UTF-8"?>
<svg width="23px" height="13px" viewBox="0 0 23 13" version="1.1" xmlns="http://www.w3.org/2000/svg" xmlns:xlink="http://www.w3.org/1999/xlink">
    <!-- Generator: Sketch 47.1 (45422) - http://www.bohemiancoding.com/sketch -->
    <title>Nav tickets</title>
    <desc>Created with Sketch.</desc>
    <defs></defs>
    <g id="Symbols" stroke="none" stroke-width="1" fill="none" fill-rule="evenodd">
        <g id="Dark-nav-tickets" transform="translate(-223.000000, -13.000000)" fill="#4BAEE0">
            <g id="Tickets" transform="translate(208.000000, 13.000000)">
                <path d="M36.6060606,13 L16.3939394,13 C15.6240879,13 15,12.387337 15,11.6315789 L15,10.9473684 C15,9.92105263 15.6969697,9.92105263 16.3939394,9.57894737 C17.0909091,9.23684211 17.7878788,8.35362142 17.7878788,6.84210526 C17.7878788,5.33058911 17.0909091,4.44736842 16.3939394,4.10526316 C15.6969697,3.76315789 15,3.76315789 15,2.73684211 L15,1.36842105 C15,0.612662974 15.6240879,0 16.3939394,0 L36.6060606,0 C37.3759121,0 38,0.612662974 38,1.36842105 L38,2.73684211 C38,3.76315789 37.3030303,3.76315789 36.6060606,4.10526316 C35.9090909,4.44736842 35.2121212,5.33058911 35.2121212,6.84210526 C35.2121212,8.35362142 35.9090909,9.23684211 36.6060606,9.57894737 C37.3030303,9.92105263 38,9.92105263 38,10.9473684 L38,11.6315789 C38,12.387337 37.3759121,13 36.6060606,13 Z M24,2 C21.790861,2 20,3.790861 20,6 L20,6 L20,7 C20,9.209139 21.790861,11 24,11 L29,11 C31.209139,11 33,9.209139 33,7 L33,6 C33,3.790861 31.209139,2 29,2 L24,2 Z" id="Nav-tickets"></path>
            </g>
        </g>
    </g>
</svg>